<svg id="visual" viewBox="0 0 900 600" width="900" height="600" xmlns="http://www.w3.org/2000/svg" xmlns:xlink="http://www.w3.org/1999/xlink" version="1.1"><g stroke-width="1" stroke-linejoin="bevel"><path d="M531 298L586 264L572 195Z" fill="#8a5bf1" stroke="#8a5bf1"></path><path d="M572 195L498 180L531 298Z" fill="#8a5bf1" stroke="#8a5bf1"></path><path d="M370 278L523 364L531 298Z" fill="#7a4dd9" stroke="#7a4dd9"></path><path d="M531 298L615 399L586 264Z" fill="#7247ce" stroke="#7247ce"></path><path d="M671 181L561 109L572 195Z" fill="#aa80fe" stroke="#aa80fe"></path><path d="M572 195L561 109L498 180Z" fill="#6a40c2" stroke="#6a40c2"></path><path d="M561 109L514 92L498 180Z" fill="#9262fd" stroke="#9262fd"></path><path d="M700 313L671 181L586 264Z" fill="#8254e5" stroke="#8254e5"></path><path d="M586 264L671 181L572 195Z" fill="#9a6cfe" stroke="#9a6cfe"></path><path d="M376 162L370 278L498 180Z" fill="#7247ce" stroke="#7247ce"></path><path d="M498 180L370 278L531 298Z" fill="#9262fd" stroke="#9262fd"></path><path d="M514 92L422 110L498 180Z" fill="#9262fd" stroke="#9262fd"></path><path d="M422 110L376 162L498 180Z" fill="#7a4dd9" stroke="#7a4dd9"></path><path d="M523 364L615 399L531 298Z" fill="#a276fe" stroke="#a276fe"></path><path d="M615 399L700 313L586 264Z" fill="#b893ff" stroke="#b893ff"></path><path d="M761 117L677 102L671 181Z" fill="#9262fd" stroke="#9262fd"></path><path d="M671 181L677 102L561 109Z" fill="#8a5bf1" stroke="#8a5bf1"></path><path d="M561 109L560 0L514 92Z" fill="#8254e5" stroke="#8254e5"></path><path d="M366 394L518 460L523 364Z" fill="#8254e5" stroke="#8254e5"></path><path d="M523 364L518 460L615 399Z" fill="#7247ce" stroke="#7247ce"></path><path d="M370 278L366 394L523 364Z" fill="#b189ff" stroke="#b189ff"></path><path d="M615 399L685 417L700 313Z" fill="#8254e5" stroke="#8254e5"></path><path d="M612 532L685 417L615 399Z" fill="#7a4dd9" stroke="#7a4dd9"></path><path d="M281 130L297 225L376 162Z" fill="#9a6cfe" stroke="#9a6cfe"></path><path d="M376 162L297 225L370 278Z" fill="#8254e5" stroke="#8254e5"></path><path d="M370 278L306 368L366 394Z" fill="#b893ff" stroke="#b893ff"></path><path d="M677 102L560 0L561 109Z" fill="#7247ce" stroke="#7247ce"></path><path d="M514 92L479 0L422 110Z" fill="#b189ff" stroke="#b189ff"></path><path d="M297 225L291 262L370 278Z" fill="#b893ff" stroke="#b893ff"></path><path d="M560 0L479 0L514 92Z" fill="#8a5bf1" stroke="#8a5bf1"></path><path d="M422 110L281 130L376 162Z" fill="#b893ff" stroke="#b893ff"></path><path d="M795 268L671 181L700 313Z" fill="#9262fd" stroke="#9262fd"></path><path d="M795 268L781 184L671 181Z" fill="#7247ce" stroke="#7247ce"></path><path d="M677 102L712 0L560 0Z" fill="#8a5bf1" stroke="#8a5bf1"></path><path d="M781 184L761 117L671 181Z" fill="#b893ff" stroke="#b893ff"></path><path d="M291 262L306 368L370 278Z" fill="#9a6cfe" stroke="#9a6cfe"></path><path d="M366 394L422 511L518 460Z" fill="#b893ff" stroke="#b893ff"></path><path d="M825 380L795 268L700 313Z" fill="#b189ff" stroke="#b189ff"></path><path d="M334 0L281 130L422 110Z" fill="#a276fe" stroke="#a276fe"></path><path d="M197 169L202 310L291 262Z" fill="#6a40c2" stroke="#6a40c2"></path><path d="M479 0L383 0L422 110Z" fill="#9262fd" stroke="#9262fd"></path><path d="M299 504L422 511L366 394Z" fill="#b893ff" stroke="#b893ff"></path><path d="M518 460L612 532L615 399Z" fill="#8a5bf1" stroke="#8a5bf1"></path><path d="M761 117L712 0L677 102Z" fill="#b893ff" stroke="#b893ff"></path><path d="M529 600L612 532L518 460Z" fill="#a276fe" stroke="#a276fe"></path><path d="M685 417L825 380L700 313Z" fill="#7247ce" stroke="#7247ce"></path><path d="M612 532L715 488L685 417Z" fill="#b189ff" stroke="#b189ff"></path><path d="M383 0L334 0L422 110Z" fill="#8a5bf1" stroke="#8a5bf1"></path><path d="M715 488L825 380L685 417Z" fill="#8254e5" stroke="#8254e5"></path><path d="M795 268L900 209L781 184Z" fill="#9a6cfe" stroke="#9a6cfe"></path><path d="M291 262L202 310L306 368Z" fill="#b189ff" stroke="#b189ff"></path><path d="M306 368L299 504L366 394Z" fill="#aa80fe" stroke="#aa80fe"></path><path d="M197 169L291 262L297 225Z" fill="#7a4dd9" stroke="#7a4dd9"></path><path d="M197 169L297 225L281 130Z" fill="#8254e5" stroke="#8254e5"></path><path d="M172 122L197 169L281 130Z" fill="#9a6cfe" stroke="#9a6cfe"></path><path d="M237 514L299 504L306 368Z" fill="#aa80fe" stroke="#aa80fe"></path><path d="M422 511L529 600L518 460Z" fill="#9262fd" stroke="#9262fd"></path><path d="M124 296L194 362L202 310Z" fill="#9a6cfe" stroke="#9a6cfe"></path><path d="M202 310L194 362L306 368Z" fill="#9a6cfe" stroke="#9a6cfe"></path><path d="M419 600L529 600L422 511Z" fill="#8254e5" stroke="#8254e5"></path><path d="M612 532L708 600L715 488Z" fill="#7a4dd9" stroke="#7a4dd9"></path><path d="M529 600L560 600L612 532Z" fill="#8a5bf1" stroke="#8a5bf1"></path><path d="M900 305L900 209L795 268Z" fill="#7247ce" stroke="#7247ce"></path><path d="M781 184L900 78L761 117Z" fill="#6a40c2" stroke="#6a40c2"></path><path d="M761 117L823 0L712 0Z" fill="#9262fd" stroke="#9262fd"></path><path d="M825 380L900 305L795 268Z" fill="#aa80fe" stroke="#aa80fe"></path><path d="M900 78L823 0L761 117Z" fill="#9262fd" stroke="#9262fd"></path><path d="M299 504L419 600L422 511Z" fill="#6a40c2" stroke="#6a40c2"></path><path d="M172 0L172 122L281 130Z" fill="#7a4dd9" stroke="#7a4dd9"></path><path d="M197 169L124 296L202 310Z" fill="#8254e5" stroke="#8254e5"></path><path d="M715 488L820 488L825 380Z" fill="#aa80fe" stroke="#aa80fe"></path><path d="M825 380L900 367L900 305Z" fill="#7a4dd9" stroke="#7a4dd9"></path><path d="M761 600L820 488L715 488Z" fill="#7247ce" stroke="#7247ce"></path><path d="M900 475L900 367L825 380Z" fill="#6a40c2" stroke="#6a40c2"></path><path d="M900 209L900 78L781 184Z" fill="#8254e5" stroke="#8254e5"></path><path d="M560 600L708 600L612 532Z" fill="#9a6cfe" stroke="#9a6cfe"></path><path d="M194 362L237 514L306 368Z" fill="#8254e5" stroke="#8254e5"></path><path d="M299 504L285 600L419 600Z" fill="#8a5bf1" stroke="#8a5bf1"></path><path d="M91 188L124 296L197 169Z" fill="#b189ff" stroke="#b189ff"></path><path d="M194 362L102 432L237 514Z" fill="#8a5bf1" stroke="#8a5bf1"></path><path d="M708 600L761 600L715 488Z" fill="#a276fe" stroke="#a276fe"></path><path d="M820 488L900 475L825 380Z" fill="#7a4dd9" stroke="#7a4dd9"></path><path d="M334 0L172 0L281 130Z" fill="#6a40c2" stroke="#6a40c2"></path><path d="M172 122L91 188L197 169Z" fill="#7247ce" stroke="#7247ce"></path><path d="M900 600L900 475L820 488Z" fill="#8a5bf1" stroke="#8a5bf1"></path><path d="M237 514L285 600L299 504Z" fill="#a276fe" stroke="#a276fe"></path><path d="M900 78L900 0L823 0Z" fill="#9262fd" stroke="#9262fd"></path><path d="M102 102L91 188L172 122Z" fill="#8a5bf1" stroke="#8a5bf1"></path><path d="M172 0L102 102L172 122Z" fill="#8254e5" stroke="#8254e5"></path><path d="M114 522L231 600L237 514Z" fill="#b189ff" stroke="#b189ff"></path><path d="M237 514L231 600L285 600Z" fill="#6a40c2" stroke="#6a40c2"></path><path d="M0 369L102 432L124 296Z" fill="#7a4dd9" stroke="#7a4dd9"></path><path d="M124 296L102 432L194 362Z" fill="#6a40c2" stroke="#6a40c2"></path><path d="M102 432L114 522L237 514Z" fill="#b189ff" stroke="#b189ff"></path><path d="M761 600L900 600L820 488Z" fill="#7a4dd9" stroke="#7a4dd9"></path><path d="M0 114L0 207L91 188Z" fill="#6a40c2" stroke="#6a40c2"></path><path d="M91 188L0 207L124 296Z" fill="#b893ff" stroke="#b893ff"></path><path d="M172 0L75 0L102 102Z" fill="#a276fe" stroke="#a276fe"></path><path d="M0 114L91 188L102 102Z" fill="#7247ce" stroke="#7247ce"></path><path d="M102 432L0 465L114 522Z" fill="#6a40c2" stroke="#6a40c2"></path><path d="M0 207L0 314L124 296Z" fill="#9262fd" stroke="#9262fd"></path><path d="M75 0L0 114L102 102Z" fill="#6a40c2" stroke="#6a40c2"></path><path d="M0 314L0 369L124 296Z" fill="#b189ff" stroke="#b189ff"></path><path d="M0 369L0 465L102 432Z" fill="#a276fe" stroke="#a276fe"></path><path d="M114 522L78 600L231 600Z" fill="#9a6cfe" stroke="#9a6cfe"></path><path d="M0 600L78 600L114 522Z" fill="#a276fe" stroke="#a276fe"></path><path d="M75 0L0 0L0 114Z" fill="#7247ce" stroke="#7247ce"></path><path d="M0 465L0 600L114 522Z" fill="#6a40c2" stroke="#6a40c2"></path></g></svg>